<svg width="97" height="98" xmlns="http://www.w3.org/2000/svg" xmlns:xlink="http://www.w3.org/1999/xlink" xml:space="preserve" overflow="hidden"><defs><clipPath id="clip0"><rect x="72" y="206" width="97" height="98"/></clipPath><clipPath id="clip1"><rect x="72" y="207" width="97" height="97"/></clipPath><clipPath id="clip2"><rect x="72" y="207" width="98" height="97"/></clipPath><clipPath id="clip3"><rect x="72" y="207" width="98" height="97"/></clipPath></defs><g clip-path="url(#clip0)" transform="translate(-72 -206)"><g clip-path="url(#clip1)"><g clip-path="url(#clip2)"><g clip-path="url(#clip3)"><path d="M146.67 256.814C148.489 264.19 140.91 271.465 133.433 268.433 127.169 266.21 124.744 258.935 129.089 252.671 138.89 239.636 131.716 219.125 115.448 212.052 122.824 225.996 111.507 238.828 105.041 244.183 98.574 249.539 94.2292 255.096 92.9156 258.329 86.3479 274.294 96.149 289.551 102.818 293.189 99.7865 286.318 96.9573 273.182 108.88 260.855 108.88 260.855 105.445 273.991 112.922 283.084 120.399 292.178 120.298 298.948 120.298 298.948 131.918 298.948 142.931 291.976 147.579 280.558 151.116 273.789 151.419 263.078 146.67 256.814" stroke="#404040" stroke-width="1.01039" stroke-linecap="butt" stroke-linejoin="miter" stroke-miterlimit="4" stroke-opacity="1" fill="none" fill-rule="nonzero"/></g></g></g></g></svg>