<svg width="97" height="97" xmlns="http://www.w3.org/2000/svg" xmlns:xlink="http://www.w3.org/1999/xlink" xml:space="preserve" overflow="hidden"><defs><clipPath id="clip0"><rect x="165" y="276" width="97" height="97"/></clipPath><clipPath id="clip1"><rect x="166" y="277" width="96" height="96"/></clipPath><clipPath id="clip2"><rect x="166" y="277" width="96" height="96"/></clipPath><clipPath id="clip3"><rect x="166" y="277" width="96" height="96"/></clipPath></defs><g clip-path="url(#clip0)" transform="translate(-165 -276)"><g clip-path="url(#clip1)"><g clip-path="url(#clip2)"><g clip-path="url(#clip3)"><path d="M248.9 316.1C248.6 316.1 248.3 316.1 248 316.1L245.4 309.1C251.4 305.7 253.5 298.1 250.2 292.1 246.8 286.1 239.2 284 233.2 287.3 230.3 288.9 228.1 291.7 227.3 294.9L218 293.9C217.3 289.5 213.2 286.4 208.8 287.1 204.8 287.7 201.9 291.1 201.9 295.1 201.9 296.5 202.3 297.9 203 299.2L191.8 310.2C189.7 308.6 187.1 307.7 184.4 307.7 177.5 307.7 171.9 313.3 171.9 320.2 171.9 327.1 177.5 332.7 184.4 332.7L186.9 347.7C182.8 349.5 180.9 354.3 182.7 358.4 184.5 362.5 189.3 364.4 193.4 362.6 197.2 361 199.1 356.8 198 352.8L206.8 348.2C212.5 354.5 222.3 355 228.7 349.3 231.9 346.4 233.8 342.2 233.8 337.9 233.8 336.8 233.7 335.6 233.4 334.5L243.1 329.5C246.1 332.9 251.2 333.2 254.6 330.2 258 327.2 258.3 322.1 255.3 318.7 253.4 317.1 251.2 316.1 248.9 316.1ZM248.9 319.1C250.2 319.1 251.2 320.1 251.2 321.4 251.2 322.7 250.2 323.7 248.9 323.7 247.6 323.7 246.6 322.7 246.6 321.4 246.6 321.4 246.6 321.4 246.6 321.4 246.6 320.1 247.6 319.1 248.9 319.1ZM239.3 290.6C241.2 290.6 242.8 292.2 242.8 294.1 242.8 296 241.2 297.6 239.3 297.6 237.4 297.6 235.8 296 235.8 294.1 235.8 294.1 235.8 294.1 235.8 294.1 235.8 292.2 237.3 290.6 239.3 290.6ZM232.2 302C232.2 301.5 232.5 300.9 232.9 300.6 233.9 299.9 235.1 299.3 236.3 299 237.2 298.7 238.2 298.6 239.2 298.6 240.2 298.6 241.2 298.8 242.1 299 243.3 299.3 244.5 299.9 245.5 300.7 245.9 301 246.2 301.6 246.2 302.1L246.2 304.8 232.2 304.8 232.2 302ZM209.9 290C211.2 290 212.2 291 212.2 292.3 212.2 293.6 211.2 294.6 209.9 294.6 208.6 294.6 207.6 293.6 207.6 292.3 207.6 292.3 207.6 292.3 207.6 292.3 207.6 291.1 208.6 290 209.9 290ZM205.2 297.5C205.2 297.1 205.4 296.8 205.7 296.6 206.4 296.1 207.2 295.8 208 295.6 208.6 295.4 209.3 295.3 209.9 295.3 210.5 295.3 211.2 295.4 211.8 295.6 212.6 295.8 213.3 296.2 214 296.7 214.3 296.9 214.5 297.3 214.5 297.6L214.5 299.4 205.3 299.4 205.3 297.5ZM184.2 312.6C186.1 312.6 187.7 314.2 187.7 316.1 187.7 318 186.1 319.6 184.2 319.6 182.3 319.6 180.7 318 180.7 316.1 180.7 316.1 180.7 316.1 180.7 316.1 180.8 314.2 182.3 312.6 184.2 312.6ZM177.2 326.7 177.2 324C177.2 323.5 177.5 322.9 177.9 322.6 178.9 321.9 180.1 321.3 181.3 321 182.2 320.7 183.2 320.6 184.2 320.6 185.2 320.6 186.2 320.8 187.1 321 188.3 321.3 189.5 321.9 190.5 322.7 190.9 323 191.2 323.6 191.2 324.1L191.2 326.8 177.2 326.7ZM194.5 359.3 185.2 359.3 185.2 357.5C185.2 357.1 185.4 356.8 185.7 356.6 186.4 356.1 187.2 355.7 188 355.5 188.6 355.3 189.3 355.2 189.9 355.2 190.5 355.2 191.2 355.3 191.8 355.5 192.6 355.7 193.3 356.1 194 356.6 194.3 356.8 194.5 357.2 194.5 357.5L194.5 359.3ZM187.5 352.3C187.5 351 188.5 350 189.8 350 191.1 350 192.1 351 192.1 352.3 192.1 353.6 191.1 354.6 189.8 354.6 188.6 354.7 187.6 353.6 187.5 352.3ZM195.5 349.5C194.2 348.2 192.4 347.4 190.6 347.2L188.1 332.2C190.5 331.4 192.6 329.9 194.1 327.9L203.4 332.8C201.9 336.8 202.2 341.3 204.2 345.1L195.5 349.5ZM205.3 329.1 196.1 324.3C196.5 323 196.7 321.7 196.7 320.3 196.7 317.7 195.9 315.2 194.4 313.1L205.6 302.2C209.4 304.5 214.4 303.4 216.7 299.6 217 299.1 217.2 298.6 217.4 298.1L226.7 299.1C226.9 302.7 228.7 306.1 231.6 308.3L223.4 323.6C216.9 321 209.4 323.3 205.3 329.1ZM222.3 332.8C222.3 335.2 220.3 337.1 217.9 337.1 215.5 337.1 213.6 335.2 213.6 332.8 213.6 330.4 215.5 328.5 217.9 328.5 217.9 328.5 217.9 328.5 218 328.5 220.4 328.5 222.3 330.4 222.3 332.8ZM226.6 345.9 209.3 345.9 209.3 342.6C209.3 341.9 209.6 341.3 210.2 340.9 211.5 340 212.9 339.3 214.4 338.8 215.6 338.5 216.8 338.3 218 338.3 219.2 338.3 220.4 338.5 221.6 338.8 223.1 339.2 224.6 339.9 225.8 340.9 226.3 341.3 226.7 342 226.7 342.6L226.6 345.9ZM240.8 324.3C240.8 324.9 240.9 325.5 241.1 326.1L231.9 330.9C230.8 328.7 229.1 326.9 227.1 325.5L235.3 310.2C236.6 310.7 238 310.9 239.4 310.9 240.2 310.9 241 310.8 241.8 310.7L244.4 317.7C242 319.1 240.7 321.6 240.8 324.3ZM253.5 328.3 244.2 328.3 244.2 326.5C244.2 326.1 244.4 325.8 244.7 325.6 245.4 325.1 246.2 324.7 247 324.5 247.6 324.3 248.3 324.2 248.9 324.2 249.5 324.2 250.2 324.3 250.8 324.5 251.6 324.7 252.3 325.1 253 325.6 253.3 325.8 253.5 326.2 253.5 326.5L253.5 328.3Z" stroke="#404040" stroke-width="1" stroke-linecap="butt" stroke-linejoin="miter" stroke-miterlimit="4" stroke-opacity="1" fill="none" fill-rule="nonzero"/></g></g></g></g></svg>